<svg xmlns="http://www.w3.org/2000/svg" width="24" height="24" viewBox="0 0 24 24" fill="none" stroke="currentColor" stroke-width="2" stroke-linecap="round" stroke-linejoin="round"> <path d="m5.1318 13.778 1.8137 8.3408h10.109l1.8137-8.3408"/> <path d="m17.745 13.778c-3.7605 1.0421-7.5939 0.99968-11.491 0-1.8305 0-3.3146-1.484-3.3146-3.3146 0-1.831 1.484-3.3146 3.3146-3.3146h0.27135c0.32792-2.7308 2.6552-4.8503 5.4739-4.8503s5.146 2.1196 5.4739 4.8503h0.27135c1.8305 0 3.3146 1.4836 3.3146 3.3146 0 1.8305-1.484 3.3146-3.3146 3.3146z"/> <path d="m17.474 7.1491c0 1.0598-0.06276 1.8756-0.25058 2.4307"/> <path d="m8.9064 7.2494v0.44194"/> </svg>