<?xml version="1.0" encoding="UTF-8"?>
<svg class="feather feather-save" width="24" height="24" fill="none" stroke="currentColor" stroke-linecap="round" stroke-linejoin="round" stroke-width="2" version="1.1" viewBox="0 0 24 24" xml:space="preserve" xmlns="http://www.w3.org/2000/svg"><g><path d="m19 21h-14c-1.1046 0-2-0.89543-2-2v-14c0-1.1046 0.89543-2 2-2h11l5 5v11c0 1.1046-0.89543 2-2 2z"/><path d="m17 21v-4m-3.465-4h-6.535v8"/><polyline points="7 3 7 8 15 8"/><path d="m17.014 17v3.1219a1.1142 0.89198 0 0 1-1.1142 0.89197h-7.7994a1.1142 0.89198 0 0 1-1.1142-0.89197v-6.2438a1.1142 0.89198 0 0 1 1.1142-0.89197h6.1281" display="none" fill="none" stroke="#fb0000" stroke-linecap="round" stroke-linejoin="round" stroke-width="2"/></g><g fill="none" stroke="currentColor" stroke-linecap="round" stroke-linejoin="round" stroke-width="2"><g transform="translate(47.902 4.3992)" display="none"><line x1="12" x2="12" y1="5" y2="19"/><line x1="5" x2="19" y1="12" y2="12"/></g><g transform="translate(-4.2037 -30.012)" display="none"><circle cx="12" cy="12" r="10"/><line x1="12" x2="12" y1="8" y2="16"/><line x1="8" x2="16" y1="12" y2="12"/></g><g transform="translate(1.6864 -8.6517)" display="none"><line x1="20" x2="20" y1="8" y2="14" display="inline"/><line x1="23" x2="17" y1="11" y2="11"/></g><g transform="translate(13.999 24.68)"><polyline points="9 11 12 14 22 4"/><path d="m21 12v7a2 2 0 0 1-2 2h-14a2 2 0 0 1-2-2v-14a2 2 0 0 1 2-2h11"/></g><g transform="translate(-17.322 23.507)"><polyline transform="translate(10.656 -18.574)" points="17 11 19 13 23 9" stroke-width="2"/></g><g transform="translate(22.075 1.1803)" display="none"><polyline points="20 6 9 17 4 12"/></g><g transform="translate(-25.026 .5038)" display="none"><path d="m22 11.08v0.92a10 10 0 1 1-5.93-9.14"/><polyline points="22 4 12 14.01 9 11.01"/></g></g></svg>
